<?xml version="1.0" encoding="UTF-8" standalone="no"?>
<svg
   version="1.1"
   viewBox="-5 -10 100 100"
   id="svg24"
   sodipodi:docname="logo.svg"
   width="100"
   height="100"
   inkscape:version="1.2.1 (9c6d41e410, 2022-07-14)"
   xmlns:inkscape="http://www.inkscape.org/namespaces/inkscape"
   xmlns:sodipodi="http://sodipodi.sourceforge.net/DTD/sodipodi-0.dtd"
   xmlns="http://www.w3.org/2000/svg"
   xmlns:svg="http://www.w3.org/2000/svg">
  <defs
     id="defs28" />
  <sodipodi:namedview
     id="namedview26"
     pagecolor="#ffffff"
     bordercolor="#000000"
     borderopacity="0.25"
     inkscape:showpageshadow="2"
     inkscape:pageopacity="0.0"
     inkscape:pagecheckerboard="0"
     inkscape:deskcolor="#d1d1d1"
     showgrid="false"
     inkscape:zoom="6.2740741"
     inkscape:cx="55.067886"
     inkscape:cy="93.24085"
     inkscape:window-width="1920"
     inkscape:window-height="1027"
     inkscape:window-x="1432"
     inkscape:window-y="-8"
     inkscape:window-maximized="1"
     inkscape:current-layer="svg24" />
  <path
     d="m 45.00015,32.35316 c -4.2188,0 -7.6445,3.4258 -7.6445,7.6445 0,4.2187 3.4258,7.6445 7.6445,7.6445 4.2187,0 7.6445,-3.4258 7.6445,-7.6445 0,-4.2187 -3.4258,-7.6445 -7.6445,-7.6445 z"
     id="path16" />
  <path
     d="m 85.45715,36.77916 c -1.5117,0 -2.7695,1.043 -3.125,2.4375 h -9.5625 v -2.6758 c 0,-0.42578 -0.35547,-0.78125 -0.78125,-0.78125 h -2.918 c -0.61328,-3.5 -2.0117,-6.8633 -4.0508,-9.7812 l 2.0625,-2.0625 c 0.14453,-0.14453 0.23047,-0.34375 0.23047,-0.55078 0,-0.20703 -0.08203,-0.40625 -0.23047,-0.55078 l -4.8945,-4.8867 c -0.30078,-0.3125 -0.80078,-0.3125 -1.1055,0 l -2.0625,2.0508 C 58.43757,19.5722 57.8321,19.1972 57.2188,18.84175 v -7.793 h 18.219 v 3.4375 c -1.3945,0.35547 -2.4375,1.6133 -2.4375,3.1133 0,1.7812 1.4492,3.2305 3.2188,3.2305 1.7696,0 3.2305,-1.4492 3.2305,-3.2305 0,-1.5 -1.043,-2.7617 -2.4492,-3.1133 v -4.2188 c 0,-0.4374999 -0.34375,-0.7812501 -0.78125,-0.7812501 h -19.781 c -0.42578,0 -0.78125,0.3437502 -0.78125,0.7812501 v 7.7383 c -2.0312,-0.98828 -4.1992,-1.6875 -6.418,-2.082 v -2.918 c 0,-0.42578 -0.35547,-0.78125 -0.78125,-0.78125 h -2.6758 V 2.6658999 c 1.3945,-0.35547 2.4375,-1.6133 2.4375,-3.11329998 0,-1.78120002 -1.4375,-3.23050002 -3.2188,-3.23050002 -1.7813,0 -3.2305,1.4492 -3.2305,3.23050002 0,1.49999998 1.0508,2.76169998 2.4492,3.11329998 V 12.2284 h -2.6758 c -0.42578,0 -0.78125,0.35547 -0.78125,0.78125 v 2.918 c -2.2305,0.39453 -4.3867,1.0938 -6.418,2.082 v -7.7383 c 0,-0.4374999 -0.35547,-0.7812501 -0.78125,-0.7812501 l -19.793,-0.0039 c -0.42578,0 -0.78125,0.3437502 -0.78125,0.7812501 v 4.2188 c -1.3945,0.35547 -2.4375,1.6133 -2.4375,3.1133 0,1.7812 1.4492,3.2305 3.2188,3.2305 1.7696,0 3.2305,-1.4492 3.2305,-3.2305 0,-1.5 -1.043,-2.7617 -2.4492,-3.1133 v -3.4375 h 18.23 v 7.793 c -0.625,0.35547 -1.2305,0.73047 -1.8125,1.1367 l -2.0625,-2.0508 c -0.30078,-0.3125 -0.79297,-0.3125 -1.1055,0 l -4.8867,4.8867 c -0.30078,0.30078 -0.30078,0.80078 0,1.1055 l 2.0625,2.0625 c -2.0508,2.918 -3.4375,6.2812 -4.0508,9.7812 h -2.918 c -0.4375,0 -0.78125,0.35547 -0.78125,0.78125 v 2.6758 l -9.5703,-0.0039 c -0.34375,-1.3945 -1.6055,-2.4375 -3.1133,-2.4375 -1.7695,0 -3.2188,1.4492 -3.2188,3.2188 0,1.7696 1.4492,3.2305 3.2188,3.2305 1.5117,0 2.7695,-1.043 3.1133,-2.4492 h 9.5742 v 2.6758 c 0,0.4375 0.34375,0.78125 0.78125,0.78125 h 2.918 c 0.61328,3.5117 2,6.8633 4.0508,9.793 l -2.0625,2.0625 c -0.30078,0.30078 -0.30078,0.79297 0,1.1055 l 4.8867,4.8867 c 0.3125,0.30078 0.80078,0.30078 1.1055,0 l 2.0625,-2.0625 c 0.58203,0.41797 1.1875,0.79297 1.8125,1.1445 v 7.793 l -18.234,-0.0039 v -3.4375 c 1.4062,-0.35547 2.4492,-1.6133 2.4492,-3.125 0,-1.7695 -1.4492,-3.2188 -3.2305,-3.2188 -1.7813,0 -3.2188,1.4492 -3.2188,3.2188 0,1.5117 1.043,2.7695 2.4375,3.125 v 4.2188 c 0,0.42578 0.35547,0.78125 0.78125,0.78125 h 19.793 c 0.42578,0 0.78125,-0.35547 0.78125,-0.78125 v -7.7383 c 2.0312,0.98047 4.1875,1.6875 6.418,2.0742 v 2.918 c 0,0.4375 0.35547,0.78125 0.78125,0.78125 h 2.6758 v 9.5742 c -1.3945,0.34375 -2.4492,1.6055 -2.4492,3.1133 0,1.7812 1.4492,3.2188 3.2305,3.2188 1.7813,0 3.2188,-1.4375 3.2188,-3.2188 0,-1.5117 -1.043,-2.7695 -2.4375,-3.1133 v -9.5742 h 2.6758 c 0.42578,0 0.78125,-0.34375 0.78125,-0.78125 v -2.918 c 2.2188,-0.38672 4.3867,-1.0938 6.418,-2.0742 v 7.7383 c 0,0.42578 0.35547,0.78125 0.78125,0.78125 h 19.781 c 0.4375,0 0.78125,-0.35547 0.78125,-0.78125 v -4.2188 c 1.4062,-0.35547 2.4492,-1.6133 2.4492,-3.125 0,-1.7695 -1.4492,-3.2188 -3.2305,-3.2188 -1.7813,0 -3.2188,1.4492 -3.2188,3.2188 0,1.5117 1.043,2.7695 2.4375,3.125 v 3.4375 h -18.219 v -7.793 c 0.61328,-0.35547 1.2188,-0.73047 1.8008,-1.1445 l 2.0625,2.0625 c 0.30078,0.30078 0.80078,0.30078 1.1055,0 l 4.8945,-4.8867 c 0.14453,-0.14453 0.23047,-0.34375 0.23047,-0.55078 0,-0.20703 -0.08203,-0.40625 -0.23047,-0.55078 l -2.0625,-2.0625 c 2.043,-2.9258 3.4375,-6.2812 4.0508,-9.793 h 2.918 c 0.42578,0 0.78125,-0.34375 0.78125,-0.78125 v -2.6758 h 9.5625 c 0.35547,1.4062 1.6133,2.4492 3.125,2.4492 1.7695,0 3.2188,-1.4492 3.2188,-3.2305 0,-1.7813 -1.4492,-3.2188 -3.2188,-3.2188 z m -23.219,3.2188 c 0,9.5117 -7.7383,17.25 -17.238,17.25 -9.4997,0 -17.238,-7.7383 -17.238,-17.25 0,-9.5117 7.7305,-17.238 17.238,-17.238 9.5117,0 17.238,7.7383 17.238,17.238 z"
     id="path18" />
</svg>
